<svg width="157" height="122" viewBox="0 0 157 122" fill="none" xmlns="http://www.w3.org/2000/svg">
<rect x="6" y="6" width="145" height="110" rx="20" stroke="white" stroke-width="12"/>
<path d="M53.3438 56.3438H58.1562C59.6979 56.3438 60.9688 56.0833 61.9688 55.5625C62.9688 55.0208 63.7083 54.2708 64.1875 53.3125C64.6875 52.3333 64.9375 51.1979 64.9375 49.9062C64.9375 48.7396 64.7083 47.7083 64.25 46.8125C63.8125 45.8958 63.1354 45.1875 62.2188 44.6875C61.3021 44.1667 60.1458 43.9062 58.75 43.9062C57.6458 43.9062 56.625 44.125 55.6875 44.5625C54.75 45 54 45.6146 53.4375 46.4062C52.875 47.1979 52.5938 48.1562 52.5938 49.2812H43.5625C43.5625 46.7812 44.2292 44.6042 45.5625 42.75C46.9167 40.8958 48.7292 39.4479 51 38.4062C53.2708 37.3646 55.7708 36.8438 58.5 36.8438C61.5833 36.8438 64.2812 37.3438 66.5938 38.3438C68.9062 39.3229 70.7083 40.7708 72 42.6875C73.2917 44.6042 73.9375 46.9792 73.9375 49.8125C73.9375 51.25 73.6042 52.6458 72.9375 54C72.2708 55.3333 71.3125 56.5417 70.0625 57.625C68.8333 58.6875 67.3333 59.5417 65.5625 60.1875C63.7917 60.8125 61.8021 61.125 59.5938 61.125H53.3438V56.3438ZM53.3438 63.1875V58.5312H59.5938C62.0729 58.5312 64.25 58.8125 66.125 59.375C68 59.9375 69.5729 60.75 70.8438 61.8125C72.1146 62.8542 73.0729 64.0938 73.7188 65.5312C74.3646 66.9479 74.6875 68.5208 74.6875 70.25C74.6875 72.375 74.2812 74.2708 73.4688 75.9375C72.6562 77.5833 71.5104 78.9792 70.0312 80.125C68.5729 81.2708 66.8646 82.1458 64.9062 82.75C62.9479 83.3333 60.8125 83.625 58.5 83.625C56.5833 83.625 54.6979 83.3646 52.8438 82.8438C51.0104 82.3021 49.3438 81.5 47.8438 80.4375C46.3646 79.3542 45.1771 78 44.2812 76.375C43.4062 74.7292 42.9688 72.7812 42.9688 70.5312H52C52 71.6979 52.2917 72.7396 52.875 73.6562C53.4583 74.5729 54.2604 75.2917 55.2812 75.8125C56.3229 76.3333 57.4792 76.5938 58.75 76.5938C60.1875 76.5938 61.4167 76.3333 62.4375 75.8125C63.4792 75.2708 64.2708 74.5208 64.8125 73.5625C65.375 72.5833 65.6562 71.4479 65.6562 70.1562C65.6562 68.4896 65.3542 67.1562 64.75 66.1562C64.1458 65.1354 63.2812 64.3854 62.1562 63.9062C61.0312 63.4271 59.6979 63.1875 58.1562 63.1875H53.3438ZM111.5 56.25V64.125C111.5 67.5417 111.135 70.4896 110.406 72.9688C109.677 75.4271 108.625 77.4479 107.25 79.0312C105.896 80.5938 104.281 81.75 102.406 82.5C100.531 83.25 98.4479 83.625 96.1562 83.625C94.3229 83.625 92.6146 83.3958 91.0312 82.9375C89.4479 82.4583 88.0208 81.7188 86.75 80.7188C85.5 79.7188 84.4167 78.4583 83.5 76.9375C82.6042 75.3958 81.9167 73.5625 81.4375 71.4375C80.9583 69.3125 80.7188 66.875 80.7188 64.125V56.25C80.7188 52.8333 81.0833 49.9062 81.8125 47.4688C82.5625 45.0104 83.6146 43 84.9688 41.4375C86.3438 39.875 87.9688 38.7292 89.8438 38C91.7188 37.25 93.8021 36.875 96.0938 36.875C97.9271 36.875 99.625 37.1146 101.188 37.5938C102.771 38.0521 104.198 38.7708 105.469 39.75C106.74 40.7292 107.823 41.9896 108.719 43.5312C109.615 45.0521 110.302 46.875 110.781 49C111.26 51.1042 111.5 53.5208 111.5 56.25ZM102.469 65.3125V55.0312C102.469 53.3854 102.375 51.9479 102.188 50.7188C102.021 49.4896 101.76 48.4479 101.406 47.5938C101.052 46.7188 100.615 46.0104 100.094 45.4688C99.5729 44.9271 98.9792 44.5312 98.3125 44.2812C97.6458 44.0312 96.9062 43.9062 96.0938 43.9062C95.0729 43.9062 94.1667 44.1042 93.375 44.5C92.6042 44.8958 91.9479 45.5312 91.4062 46.4062C90.8646 47.2604 90.4479 48.4062 90.1562 49.8438C89.8854 51.2604 89.75 52.9896 89.75 55.0312V65.3125C89.75 66.9583 89.8333 68.4062 90 69.6562C90.1875 70.9062 90.4583 71.9792 90.8125 72.875C91.1875 73.75 91.625 74.4688 92.125 75.0312C92.6458 75.5729 93.2396 75.9688 93.9062 76.2188C94.5938 76.4688 95.3438 76.5938 96.1562 76.5938C97.1562 76.5938 98.0417 76.3958 98.8125 76C99.6042 75.5833 100.271 74.9375 100.812 74.0625C101.375 73.1667 101.792 72 102.062 70.5625C102.333 69.125 102.469 67.375 102.469 65.3125Z" fill="white"/>
</svg>
