<svg width="157" height="122" viewBox="0 0 157 122" fill="none" xmlns="http://www.w3.org/2000/svg">
<rect x="6.5" y="6.5" width="144" height="109" stroke="black"/>
<rect x="6" y="6" width="145" height="110" rx="20" stroke="white" stroke-width="12"/>
<path d="M35.3438 56.3438H40.1562C41.6979 56.3438 42.9688 56.0833 43.9688 55.5625C44.9688 55.0208 45.7083 54.2708 46.1875 53.3125C46.6875 52.3333 46.9375 51.1979 46.9375 49.9062C46.9375 48.7396 46.7083 47.7083 46.25 46.8125C45.8125 45.8958 45.1354 45.1875 44.2188 44.6875C43.3021 44.1667 42.1458 43.9062 40.75 43.9062C39.6458 43.9062 38.625 44.125 37.6875 44.5625C36.75 45 36 45.6146 35.4375 46.4062C34.875 47.1979 34.5938 48.1562 34.5938 49.2812H25.5625C25.5625 46.7812 26.2292 44.6042 27.5625 42.75C28.9167 40.8958 30.7292 39.4479 33 38.4062C35.2708 37.3646 37.7708 36.8438 40.5 36.8438C43.5833 36.8438 46.2812 37.3438 48.5938 38.3438C50.9062 39.3229 52.7083 40.7708 54 42.6875C55.2917 44.6042 55.9375 46.9792 55.9375 49.8125C55.9375 51.25 55.6042 52.6458 54.9375 54C54.2708 55.3333 53.3125 56.5417 52.0625 57.625C50.8333 58.6875 49.3333 59.5417 47.5625 60.1875C45.7917 60.8125 43.8021 61.125 41.5938 61.125H35.3438V56.3438ZM35.3438 63.1875V58.5312H41.5938C44.0729 58.5312 46.25 58.8125 48.125 59.375C50 59.9375 51.5729 60.75 52.8438 61.8125C54.1146 62.8542 55.0729 64.0938 55.7188 65.5312C56.3646 66.9479 56.6875 68.5208 56.6875 70.25C56.6875 72.375 56.2812 74.2708 55.4688 75.9375C54.6562 77.5833 53.5104 78.9792 52.0312 80.125C50.5729 81.2708 48.8646 82.1458 46.9062 82.75C44.9479 83.3333 42.8125 83.625 40.5 83.625C38.5833 83.625 36.6979 83.3646 34.8438 82.8438C33.0104 82.3021 31.3438 81.5 29.8438 80.4375C28.3646 79.3542 27.1771 78 26.2812 76.375C25.4062 74.7292 24.9688 72.7812 24.9688 70.5312H34C34 71.6979 34.2917 72.7396 34.875 73.6562C35.4583 74.5729 36.2604 75.2917 37.2812 75.8125C38.3229 76.3333 39.4792 76.5938 40.75 76.5938C42.1875 76.5938 43.4167 76.3333 44.4375 75.8125C45.4792 75.2708 46.2708 74.5208 46.8125 73.5625C47.375 72.5833 47.6562 71.4479 47.6562 70.1562C47.6562 68.4896 47.3542 67.1562 46.75 66.1562C46.1458 65.1354 45.2812 64.3854 44.1562 63.9062C43.0312 63.4271 41.6979 63.1875 40.1562 63.1875H35.3438ZM86.0938 37.0312H87.4062V44.2188H86.875C84.5 44.2188 82.3854 44.5729 80.5312 45.2812C78.6771 45.9896 77.1042 47 75.8125 48.3125C74.5417 49.6042 73.5625 51.1667 72.875 53C72.2083 54.8333 71.875 56.8854 71.875 59.1562V66.7188C71.875 68.3438 72.0312 69.7812 72.3438 71.0312C72.6771 72.2604 73.1458 73.2917 73.75 74.125C74.375 74.9375 75.1042 75.5521 75.9375 75.9688C76.7708 76.3646 77.7083 76.5625 78.75 76.5625C79.7292 76.5625 80.6146 76.3542 81.4062 75.9375C82.2188 75.5208 82.9062 74.9375 83.4688 74.1875C84.0521 73.4167 84.4896 72.5208 84.7812 71.5C85.0938 70.4583 85.25 69.3229 85.25 68.0938C85.25 66.8646 85.0938 65.7292 84.7812 64.6875C84.4896 63.6458 84.0521 62.75 83.4688 62C82.8854 61.2292 82.1771 60.6354 81.3438 60.2188C80.5104 59.8021 79.5729 59.5938 78.5312 59.5938C77.1146 59.5938 75.8646 59.9271 74.7812 60.5938C73.7188 61.2396 72.8854 62.0729 72.2812 63.0938C71.6771 64.1146 71.3542 65.1875 71.3125 66.3125L68.5938 64.5625C68.6562 62.9583 68.9896 61.4375 69.5938 60C70.2188 58.5625 71.0729 57.2917 72.1562 56.1875C73.2604 55.0625 74.5833 54.1875 76.125 53.5625C77.6667 52.9167 79.4062 52.5938 81.3438 52.5938C83.4688 52.5938 85.3333 53 86.9375 53.8125C88.5625 54.625 89.9167 55.7396 91 57.1562C92.0833 58.5729 92.8958 60.2083 93.4375 62.0625C93.9792 63.9167 94.25 65.8958 94.25 68C94.25 70.2083 93.8854 72.2604 93.1562 74.1562C92.4479 76.0521 91.4167 77.7083 90.0625 79.125C88.7292 80.5417 87.125 81.6458 85.25 82.4375C83.375 83.2292 81.2708 83.625 78.9375 83.625C76.5208 83.625 74.3229 83.1875 72.3438 82.3125C70.3854 81.4167 68.6979 80.1667 67.2812 78.5625C65.8646 76.9583 64.7708 75.0521 64 72.8438C63.25 70.6354 62.875 68.2188 62.875 65.5938V62.0938C62.875 58.4271 63.4062 55.0729 64.4688 52.0312C65.5521 48.9688 67.1042 46.3229 69.125 44.0938C71.1458 41.8438 73.5833 40.1042 76.4375 38.875C79.2917 37.6458 82.5104 37.0312 86.0938 37.0312ZM108.094 62.2812L100.906 60.5625L103.5 37.5H129.062V44.7812H110.906L109.781 54.875C110.385 54.5208 111.302 54.1458 112.531 53.75C113.76 53.3333 115.135 53.125 116.656 53.125C118.865 53.125 120.823 53.4688 122.531 54.1562C124.24 54.8438 125.688 55.8438 126.875 57.1562C128.083 58.4688 129 60.0729 129.625 61.9688C130.25 63.8646 130.562 66.0104 130.562 68.4062C130.562 70.4271 130.25 72.3542 129.625 74.1875C129 76 128.052 77.625 126.781 79.0625C125.51 80.4792 123.917 81.5938 122 82.4062C120.083 83.2188 117.812 83.625 115.188 83.625C113.229 83.625 111.333 83.3333 109.5 82.75C107.688 82.1667 106.052 81.3021 104.594 80.1562C103.156 79.0104 102 77.625 101.125 76C100.271 74.3542 99.8229 72.4792 99.7812 70.375H108.719C108.844 71.6667 109.177 72.7812 109.719 73.7188C110.281 74.6354 111.021 75.3438 111.938 75.8438C112.854 76.3438 113.927 76.5938 115.156 76.5938C116.302 76.5938 117.281 76.375 118.094 75.9375C118.906 75.5 119.562 74.8958 120.062 74.125C120.562 73.3333 120.927 72.4167 121.156 71.375C121.406 70.3125 121.531 69.1667 121.531 67.9375C121.531 66.7083 121.385 65.5938 121.094 64.5938C120.802 63.5938 120.354 62.7292 119.75 62C119.146 61.2708 118.375 60.7083 117.438 60.3125C116.521 59.9167 115.448 59.7188 114.219 59.7188C112.552 59.7188 111.26 59.9792 110.344 60.5C109.448 61.0208 108.698 61.6146 108.094 62.2812Z" fill="white"/>
</svg>
